<?xml version="1.0" encoding="UTF-8" standalone="no"?>
<!DOCTYPE svg PUBLIC "-//W3C//DTD SVG 1.1//EN" "http://www.w3.org/Graphics/SVG/1.1/DTD/svg11.dtd">
<svg width="100%" height="100%" viewBox="0 0 24 24" version="1.1" xmlns="http://www.w3.org/2000/svg" xmlns:xlink="http://www.w3.org/1999/xlink" xml:space="preserve" xmlns:serif="http://www.serif.com/" style="fill-rule:evenodd;clip-rule:evenodd;stroke-linejoin:round;stroke-miterlimit:2;">
    <g id="edit">
        <path d="M3,21L3,16.75L16.2,3.575C16.4,3.392 16.621,3.25 16.863,3.15C17.104,3.05 17.358,3 17.625,3C17.892,3 18.15,3.05 18.4,3.15C18.65,3.25 18.867,3.4 19.05,3.6L20.425,5C20.625,5.183 20.771,5.4 20.863,5.65C20.954,5.9 21,6.15 21,6.4C21,6.667 20.954,6.921 20.863,7.162C20.771,7.404 20.625,7.625 20.425,7.825L7.25,21L3,21ZM14.775,7.8L5,17.575L5,19L6.425,19L16.2,9.225L15.475,8.525L14.775,7.8Z"/>
    </g>
    <g id="close">
        <path id="close1" serif:id="close" d="M6.4,19L5,17.6L10.6,12L5,6.4L6.4,5L12,10.6L17.6,5L19,6.4L13.4,12L19,17.6L17.6,19L12,13.4L6.4,19Z"/>
    </g>
    <g id="refresh" transform="matrix(0.025,0,0,0.025,-0.318302,23.6817)">
        <path d="M480,-160C390.667,-160 315,-191 253,-253C191,-315 160,-390.667 160,-480C160,-569.333 191,-645 253,-707C315,-769 390.667,-800 480,-800C526,-800 570,-790.5 612,-771.5C654,-752.5 690,-725.333 720,-690L720,-800L800,-800L800,-520L520,-520L520,-600L688,-600C666.667,-637.333 637.5,-666.667 600.5,-688C563.5,-709.333 523.333,-720 480,-720C413.333,-720 356.667,-696.667 310,-650C263.333,-603.333 240,-546.667 240,-480C240,-413.333 263.333,-356.667 310,-310C356.667,-263.333 413.333,-240 480,-240C531.333,-240 577.667,-254.667 619,-284C660.333,-313.333 689.333,-352 706,-400L790,-400C771.333,-329.333 733.333,-271.667 676,-227C618.667,-182.333 553.333,-160 480,-160Z"/>
    </g>
    <g id="arrow-down" transform="matrix(0.025,0,0,0.025,0,24)">
        <path d="M440,-800L520,-800L520,-313L744,-537L800,-480L480,-160L160,-480L216,-537L440,-313L440,-800Z"/>
    </g>
    <g id="arrow-up" transform="matrix(-0.025,-3.06162e-18,3.06162e-18,-0.025,24,1.42109e-14)">
        <path d="M440,-800L520,-800L520,-313L744,-537L800,-480L480,-160L160,-480L216,-537L440,-313L440,-800Z"/>
    </g>
    <g id="menu" transform="matrix(0.025,0,0,0.025,0,24)">
        <path d="M480,-160C458,-160 439.167,-167.833 423.5,-183.5C407.833,-199.167 400,-218 400,-240C400,-262 407.833,-280.833 423.5,-296.5C439.167,-312.167 458,-320 480,-320C502,-320 520.833,-312.167 536.5,-296.5C552.167,-280.833 560,-262 560,-240C560,-218 552.167,-199.167 536.5,-183.5C520.833,-167.833 502,-160 480,-160ZM480,-400C458,-400 439.167,-407.833 423.5,-423.5C407.833,-439.167 400,-458 400,-480C400,-502 407.833,-520.833 423.5,-536.5C439.167,-552.167 458,-560 480,-560C502,-560 520.833,-552.167 536.5,-536.5C552.167,-520.833 560,-502 560,-480C560,-458 552.167,-439.167 536.5,-423.5C520.833,-407.833 502,-400 480,-400ZM480,-640C458,-640 439.167,-647.833 423.5,-663.5C407.833,-679.167 400,-698 400,-720C400,-742 407.833,-760.833 423.5,-776.5C439.167,-792.167 458,-800 480,-800C502,-800 520.833,-792.167 536.5,-776.5C552.167,-760.833 560,-742 560,-720C560,-698 552.167,-679.167 536.5,-663.5C520.833,-647.833 502,-640 480,-640Z"/>
    </g>
    <g id="add-many">
        <g transform="matrix(0.025,0,0,0.025,0,24)">
            <path d="M508,-200L732,-200C727.333,-182.667 719.333,-168.667 708,-158C696.667,-147.333 682,-140.667 664,-138L228,-85C206,-81.667 186.167,-86.833 168.5,-100.5C150.833,-114.167 140.667,-132 138,-154L85,-591C82.333,-613 87.667,-632.667 101,-650C114.333,-667.333 132,-677.333 154,-680L200,-686L200,-606L164,-601L218,-164L508,-200Z"/>
        </g>
        <g transform="matrix(0.025,0,0,0.025,0,24)">
            <path d="M360,-280C338,-280 319.167,-287.833 303.5,-303.5C287.833,-319.167 280,-338 280,-360L280,-800C280,-822 287.833,-840.833 303.5,-856.5C319.167,-872.167 338,-880 360,-880L800,-880C822,-880 840.833,-872.167 856.5,-856.5C872.167,-840.833 880,-822 880,-800L880,-360C880,-338 872.167,-319.167 856.5,-303.5C840.833,-287.833 822,-280 800,-280L360,-280ZM360,-360L800,-360L800,-800L360,-800L360,-360Z"/>
        </g>
        <g transform="matrix(0.025,0,0,0.025,1.77636e-15,19)">
            <path d="M540,-220L620,-220L620,-340L740,-340L740,-420L620,-420L620,-540L540,-540L540,-420L420,-420L420,-340L540,-340L540,-220Z"/>
        </g>
    </g>
    <g id="add">
        <g transform="matrix(0.025,0,0,0.025,0,24)">
            <path d="M200,-120C178,-120 159.167,-127.833 143.5,-143.5C127.833,-159.167 120,-178 120,-200L120,-760C120,-782 127.833,-800.833 143.5,-816.5C159.167,-832.167 178,-840 200,-840L760,-840C782,-840 800.833,-832.167 816.5,-816.5C832.167,-800.833 840,-782 840,-760L840,-200C840,-178 832.167,-159.167 816.5,-143.5C800.833,-127.833 782,-120 760,-120L200,-120ZM200,-200L760,-200L760,-760L200,-760L200,-200Z"/>
        </g>
        <g transform="matrix(0.025,0,0,0.025,0,24)">
            <path d="M440,-280L440,-440L280,-440L280,-520L440,-520L440,-680L520,-680L520,-520L680,-520L680,-440L520,-440L520,-280L440,-280Z"/>
        </g>
    </g>
    <g id="add-below">
        <g transform="matrix(1,0,0,1,0,1)">
            <path d="M6.5,17C5.95,17 5.479,16.804 5.087,16.413C4.696,16.021 4.5,15.55 4.5,15L4.5,4C4.5,3.45 4.696,2.979 5.087,2.588C5.479,2.196 5.95,2 6.5,2L17.5,2C18.05,2 18.521,2.196 18.912,2.588C19.304,2.979 19.5,3.45 19.5,4L19.5,15C19.5,15.55 19.304,16.021 18.912,16.413C18.521,16.804 18.05,17 17.5,17L17.5,4L6.5,4L6.5,17Z"/>
        </g>
        <g transform="matrix(1,0,0,1,0,1)">
            <path d="M11,20L11,17L8,17L8,15L11,15L11,12L13,12L13,15L16,15L16,17L13,17L13,20L11,20Z"/>
        </g>
    </g>
</svg>
