<?xml version="1.0" encoding="UTF-8" standalone="no"?>
<!DOCTYPE svg PUBLIC "-//W3C//DTD SVG 1.1//EN" "http://www.w3.org/Graphics/SVG/1.1/DTD/svg11.dtd">
<svg width="100%" height="100%" viewBox="0 0 24 24" version="1.1" xmlns="http://www.w3.org/2000/svg" xmlns:xlink="http://www.w3.org/1999/xlink" xml:space="preserve" xmlns:serif="http://www.serif.com/" style="fill-rule:evenodd;clip-rule:evenodd;stroke-linejoin:round;stroke-miterlimit:2;">
    <g id="share" transform="matrix(0.025,0,0,0.025,1,24)">
        <path d="M680,-80C646.667,-80 618.333,-91.667 595,-115C571.667,-138.333 560,-166.667 560,-200C560,-204 561,-213.333 563,-228L282,-392C271.333,-382 259,-374.167 245,-368.5C231,-362.833 216,-360 200,-360C166.667,-360 138.333,-371.667 115,-395C91.667,-418.333 80,-446.667 80,-480C80,-513.333 91.667,-541.667 115,-565C138.333,-588.333 166.667,-600 200,-600C216,-600 231,-597.167 245,-591.5C259,-585.833 271.333,-578 282,-568L563,-732C561.667,-736.667 560.833,-741.167 560.5,-745.5C560.167,-749.833 560,-754.667 560,-760C560,-793.333 571.667,-821.667 595,-845C618.333,-868.333 646.667,-880 680,-880C713.333,-880 741.667,-868.333 765,-845C788.333,-821.667 800,-793.333 800,-760C800,-726.667 788.333,-698.333 765,-675C741.667,-651.667 713.333,-640 680,-640C664,-640 649,-642.833 635,-648.5C621,-654.167 608.667,-662 598,-672L317,-508C318.333,-503.333 319.167,-498.833 319.5,-494.5C319.833,-490.167 320,-485.333 320,-480C320,-474.667 319.833,-469.833 319.5,-465.5C319.167,-461.167 318.333,-456.667 317,-452L598,-288C608.667,-298 621,-305.833 635,-311.5C649,-317.167 664,-320 680,-320C713.333,-320 741.667,-308.333 765,-285C788.333,-261.667 800,-233.333 800,-200C800,-166.667 788.333,-138.333 765,-115C741.667,-91.667 713.333,-80 680,-80ZM680,-160C691.333,-160 700.833,-163.833 708.5,-171.5C716.167,-179.167 720,-188.667 720,-200C720,-211.333 716.167,-220.833 708.5,-228.5C700.833,-236.167 691.333,-240 680,-240C668.667,-240 659.167,-236.167 651.5,-228.5C643.833,-220.833 640,-211.333 640,-200C640,-188.667 643.833,-179.167 651.5,-171.5C659.167,-163.833 668.667,-160 680,-160ZM200,-440C211.333,-440 220.833,-443.833 228.5,-451.5C236.167,-459.167 240,-468.667 240,-480C240,-491.333 236.167,-500.833 228.5,-508.5C220.833,-516.167 211.333,-520 200,-520C188.667,-520 179.167,-516.167 171.5,-508.5C163.833,-500.833 160,-491.333 160,-480C160,-468.667 163.833,-459.167 171.5,-451.5C179.167,-443.833 188.667,-440 200,-440ZM708.5,-731.5C716.167,-739.167 720,-748.667 720,-760C720,-771.333 716.167,-780.833 708.5,-788.5C700.833,-796.167 691.333,-800 680,-800C668.667,-800 659.167,-796.167 651.5,-788.5C643.833,-780.833 640,-771.333 640,-760C640,-748.667 643.833,-739.167 651.5,-731.5C659.167,-723.833 668.667,-720 680,-720C691.333,-720 700.833,-723.833 708.5,-731.5Z"/>
    </g>
    <g transform="matrix(0.025,0,0,0.025,-5.55112e-17,24)">
        <g id="install">
            <path d="M280,-40C258,-40 239.167,-47.833 223.5,-63.5C207.833,-79.167 200,-98 200,-120L200,-840C200,-862 207.833,-880.833 223.5,-896.5C239.167,-912.167 258,-920 280,-920L680,-920C702,-920 720.833,-912.167 736.5,-896.5C752.167,-880.833 760,-862 760,-840L760,-716C772,-711.333 781.667,-704 789,-694C796.333,-684 800,-672.667 800,-660L800,-580C800,-567.333 796.333,-556 789,-546C781.667,-536 772,-528.667 760,-524L760,-120C760,-98 752.167,-79.167 736.5,-63.5C720.833,-47.833 702,-40 680,-40L280,-40ZM280,-120L680,-120L680,-840L280,-840L280,-120ZM280,-120L280,-840L280,-120ZM480,-320L640,-480L584,-536L520,-474L520,-640L440,-640L440,-474L376,-536L320,-480L480,-320Z"/>
        </g>
    </g>
    <g transform="matrix(0.025,0,0,0.025,0,24.5)">
        <g id="budget">
            <path d="M668.5,-531.5C676.167,-539.167 680,-548.667 680,-560C680,-571.333 676.167,-580.833 668.5,-588.5C660.833,-596.167 651.333,-600 640,-600C628.667,-600 619.167,-596.167 611.5,-588.5C603.833,-580.833 600,-571.333 600,-560C600,-548.667 603.833,-539.167 611.5,-531.5C619.167,-523.833 628.667,-520 640,-520C651.333,-520 660.833,-523.833 668.5,-531.5ZM320,-600L520,-600L520,-680L320,-680L320,-600ZM180,-120C157.333,-196 135,-271.833 113,-347.5C91,-423.167 80,-500.667 80,-580C80,-641.333 101.333,-693.333 144,-736C186.667,-778.667 238.667,-800 300,-800L500,-800C519.333,-825.333 542.833,-845 570.5,-859C598.167,-873 628,-880 660,-880C676.667,-880 690.833,-874.167 702.5,-862.5C714.167,-850.833 720,-836.667 720,-820C720,-816 719.5,-812 718.5,-808C717.5,-804 716.333,-800.333 715,-797C712.333,-789.667 709.833,-782.167 707.5,-774.5C705.167,-766.833 703.333,-759 702,-751L793,-660L880,-660L880,-381L767,-344L700,-120L480,-120L480,-200L400,-200L400,-120L180,-120ZM240,-200L320,-200L320,-280L560,-280L560,-200L640,-200L702,-406L800,-439L800,-580L760,-580L620,-720C620,-733.333 620.833,-746.167 622.5,-758.5C624.167,-770.833 626.667,-783.333 630,-796C610.667,-790.667 593.667,-781.5 579,-768.5C564.333,-755.5 553.667,-739.333 547,-720L300,-720C261.333,-720 228.333,-706.333 201,-679C173.667,-651.667 160,-618.667 160,-580C160,-514.667 169,-450.833 187,-388.5C205,-326.167 222.667,-263.333 240,-200Z" style="fill-rule:nonzero;"/>
        </g>
    </g>
    <g id="debt" transform="matrix(0.025,0,0,0.025,-0.075,24.45)">
        <path d="M346,-48C262.667,-48 191.833,-77.5 133.5,-136.5C75.167,-195.5 46,-266.667 46,-350C46,-433.333 74.833,-503.833 132.5,-561.5C190.167,-619.167 260.667,-648 344,-648L357,-648L384,-695C392,-709.667 404,-719.167 420,-723.5C436,-727.833 451.333,-725.667 466,-717L496,-700L501,-708C516.333,-736.667 540.333,-755.333 573,-764C605.667,-772.667 636.333,-768.667 665,-752L700,-732L660,-663L625,-683C615.667,-688.333 605.5,-689.5 594.5,-686.5C583.5,-683.5 575.333,-677.333 570,-668L565,-660L605,-637C619,-629 628.167,-617 632.5,-601C636.833,-585 635,-570 627,-556L600,-508C615.333,-484 626.833,-458.5 634.5,-431.5C642.167,-404.5 646,-376.667 646,-348C646,-264.667 616.833,-193.833 558.5,-135.5C500.167,-77.167 429.333,-48 346,-48ZM346,-128C406.667,-128 458.5,-149.5 501.5,-192.5C544.5,-235.5 566,-287.333 566,-348C566,-368.667 563.167,-389 557.5,-409C551.833,-429 543.333,-448 532,-466L506,-507L548,-579L444,-639L402,-567L358,-567C295.333,-567 240.833,-547 194.5,-507C148.167,-467 125,-414.667 125,-350C125,-288.667 146.5,-236.333 189.5,-193C232.5,-149.667 284.667,-128 346,-128ZM800,-608L800,-688L920,-688L920,-608L800,-608ZM580,-828L580,-948L660,-948L660,-828L580,-828ZM775,-747L719,-803L804,-888L860,-832L775,-747Z"/>
    </g>
    <g id="bill" transform="matrix(0.025,0,0,0.025,0,24)">
        <path d="M240,-80C206.667,-80 178.333,-91.667 155,-115C131.667,-138.333 120,-166.667 120,-200L120,-320L240,-320L240,-880L300,-820L360,-880L420,-820L480,-880L540,-820L600,-880L660,-820L720,-880L780,-820L840,-880L840,-200C840,-166.667 828.333,-138.333 805,-115C781.667,-91.667 753.333,-80 720,-80L240,-80ZM720,-160C731.333,-160 740.833,-163.833 748.5,-171.5C756.167,-179.167 760,-188.667 760,-200L760,-760L320,-760L320,-320L680,-320L680,-200C680,-188.667 683.833,-179.167 691.5,-171.5C699.167,-163.833 708.667,-160 720,-160ZM360,-600L360,-680L600,-680L600,-600L360,-600ZM360,-480L360,-560L600,-560L600,-480L360,-480ZM680,-600C668.667,-600 659.167,-603.833 651.5,-611.5C643.833,-619.167 640,-628.667 640,-640C640,-651.333 643.833,-660.833 651.5,-668.5C659.167,-676.167 668.667,-680 680,-680C691.333,-680 700.833,-676.167 708.5,-668.5C716.167,-660.833 720,-651.333 720,-640C720,-628.667 716.167,-619.167 708.5,-611.5C700.833,-603.833 691.333,-600 680,-600ZM680,-480C668.667,-480 659.167,-483.833 651.5,-491.5C643.833,-499.167 640,-508.667 640,-520C640,-531.333 643.833,-540.833 651.5,-548.5C659.167,-556.167 668.667,-560 680,-560C691.333,-560 700.833,-556.167 708.5,-548.5C716.167,-540.833 720,-531.333 720,-520C720,-508.667 716.167,-499.167 708.5,-491.5C700.833,-483.833 691.333,-480 680,-480ZM240,-160L600,-160L600,-240L200,-240L200,-200C200,-188.667 203.833,-179.167 211.5,-171.5C219.167,-163.833 228.667,-160 240,-160ZM200,-160L200,-240L200,-160Z"/>
    </g>
    <g id="basket" transform="matrix(0.025,0,0,0.025,-1.77636e-15,24.5)">
        <path d="M221,-120C203,-120 187,-125.5 173,-136.5C159,-147.5 149.333,-161.667 144,-179L42,-549C38.667,-561.667 40.833,-573.333 48.5,-584C56.167,-594.667 66.667,-600 80,-600L270,-600L446,-862C449.333,-867.333 454,-871.667 460,-875C466,-878.333 472.333,-880 479,-880C485.667,-880 492,-878.333 498,-875C504,-871.667 508.667,-867.333 512,-862L688,-600L880,-600C893.333,-600 903.833,-594.667 911.5,-584C919.167,-573.333 921.333,-561.667 918,-549L816,-179C810.667,-161.667 801,-147.5 787,-136.5C773,-125.5 757,-120 739,-120L221,-120ZM220,-200L740,-200L828,-520L132,-520L220,-200ZM536.5,-303.5C552.167,-319.167 560,-338 560,-360C560,-382 552.167,-400.833 536.5,-416.5C520.833,-432.167 502,-440 480,-440C458,-440 439.167,-432.167 423.5,-416.5C407.833,-400.833 400,-382 400,-360C400,-338 407.833,-319.167 423.5,-303.5C439.167,-287.833 458,-280 480,-280C502,-280 520.833,-287.833 536.5,-303.5ZM367,-600L592,-600L479,-768L367,-600Z"/>
    </g>
    <g transform="matrix(0.025,0,0,0.025,-5.55112e-17,24)">
        <g id="scale">
            <path d="M80,-80C80,-154 89.833,-217.167 109.5,-269.5C129.167,-321.833 154.333,-365.333 185,-400C215.667,-434.667 250,-461.5 288,-480.5C326,-499.5 363.333,-512.667 400,-520L400,-640C308.667,-651.333 232.5,-679.5 171.5,-724.5C110.5,-769.5 80,-821.333 80,-880L880,-880C880,-821.333 849.5,-769.5 788.5,-724.5C727.5,-679.5 651.333,-651.333 560,-640L560,-520C596.667,-512.667 634,-499.5 672,-480.5C710,-461.5 744.333,-434.667 775,-400C805.667,-365.333 830.833,-321.833 850.5,-269.5C870.167,-217.167 880,-154 880,-80L640,-80L640,-160L795,-160C783,-261.333 745.167,-334.667 681.5,-380C617.833,-425.333 550.667,-448 480,-448C409.333,-448 342.167,-425.333 278.5,-380C214.833,-334.667 177,-261.333 165,-160L320,-160L320,-80L80,-80ZM642,-739.5C689.333,-755.833 727,-776 755,-800L205,-800C233,-776 270.667,-755.833 318,-739.5C365.333,-723.167 419.333,-715 480,-715C540.667,-715 594.667,-723.167 642,-739.5ZM480,-80C458,-80 439.167,-87.833 423.5,-103.5C407.833,-119.167 400,-138 400,-160C400,-171.333 402.167,-181.667 406.5,-191C410.833,-200.333 416.667,-208.667 424,-216C440,-232 467,-248.833 505,-266.5C543,-284.167 588,-302 640,-320C621.333,-268 603.333,-223 586,-185C568.667,-147 552,-120 536,-104C528.667,-96.667 520.333,-90.833 511,-86.5C501.667,-82.167 491.333,-80 480,-80Z"/>
        </g>
    </g>
    <g transform="matrix(0.025,0,0,0.025,-5.55112e-17,24)">
        <g id="cost">
            <path d="M600,-320L760,-320L760,-480L700,-480L700,-380L600,-380L600,-320ZM480,-360C513.333,-360 541.667,-371.667 565,-395C588.333,-418.333 600,-446.667 600,-480C600,-513.333 588.333,-541.667 565,-565C541.667,-588.333 513.333,-600 480,-600C446.667,-600 418.333,-588.333 395,-565C371.667,-541.667 360,-513.333 360,-480C360,-446.667 371.667,-418.333 395,-395C418.333,-371.667 446.667,-360 480,-360ZM200,-480L260,-480L260,-580L360,-580L360,-640L200,-640L200,-480ZM80,-200L80,-760L880,-760L880,-200L80,-200ZM160,-280L800,-280L800,-680L160,-680L160,-280ZM160,-280L160,-680L160,-280Z"/>
        </g>
    </g>
    <g id="clock" transform="matrix(0.025,0,0,0.025,-0.318302,23.6817)">
        <g transform="matrix(1,0,0,1,12.7321,12.7321)">
            <path d="M480,-80C424.667,-80 372.667,-90.5 324,-111.5C275.333,-132.5 233,-161 197,-197C161,-233 132.5,-275.333 111.5,-324C90.5,-372.667 80,-424.667 80,-480C80,-535.333 90.5,-587.333 111.5,-636C132.5,-684.667 161,-727 197,-763C233,-799 275.333,-827.5 324,-848.5C372.667,-869.5 424.667,-880 480,-880C535.333,-880 587.333,-869.5 636,-848.5C684.667,-827.5 727,-799 763,-763C799,-727 827.5,-684.667 848.5,-636C869.5,-587.333 880,-535.333 880,-480C880,-424.667 869.5,-372.667 848.5,-324C827.5,-275.333 799,-233 763,-197C727,-161 684.667,-132.5 636,-111.5C587.333,-90.5 535.333,-80 480,-80ZM480,-160C568.667,-160 644.167,-191.167 706.5,-253.5C768.833,-315.833 800,-391.333 800,-480C800,-568.667 768.833,-644.167 706.5,-706.5C644.167,-768.833 568.667,-800 480,-800C391.333,-800 315.833,-768.833 253.5,-706.5C191.167,-644.167 160,-568.667 160,-480C160,-391.333 191.167,-315.833 253.5,-253.5C315.833,-191.167 391.333,-160 480,-160Z"/>
        </g>
        <g transform="matrix(1,0,0,1,12.7321,12.7321)">
            <path d="M612,-292L668,-348L520,-496L520,-680L440,-680L440,-464L612,-292Z"/>
        </g>
    </g>
    <g transform="matrix(0.025,0,0,0.025,1.72085e-15,24)">
        <g id="note">
            <path d="M320,-240L640,-240L640,-320L320,-320L320,-240ZM320,-400L640,-400L640,-480L320,-480L320,-400ZM240,-80C218,-80 199.167,-87.833 183.5,-103.5C167.833,-119.167 160,-138 160,-160L160,-800C160,-822 167.833,-840.833 183.5,-856.5C199.167,-872.167 218,-880 240,-880L560,-880L800,-640L800,-160C800,-138 792.167,-119.167 776.5,-103.5C760.833,-87.833 742,-80 720,-80L240,-80ZM520,-600L520,-800L240,-800L240,-160L720,-160L720,-600L520,-600ZM240,-800L240,-600L240,-800L240,-160L240,-800Z"/>
        </g>
    </g>
    <g transform="matrix(0.025,0,0,0.025,1.72085e-15,24)">
        <g id="ref">
            <path d="M300,-80C261.333,-80 228.333,-93.667 201,-121C173.667,-148.333 160,-181.333 160,-220L160,-740C160,-778.667 173.667,-811.667 201,-839C228.333,-866.333 261.333,-880 300,-880L800,-880L800,-280C783.333,-280 769.167,-274.167 757.5,-262.5C745.833,-250.833 740,-236.667 740,-220C740,-203.333 745.833,-189.167 757.5,-177.5C769.167,-165.833 783.333,-160 800,-160L800,-80L300,-80ZM240,-347C249.333,-351.667 259,-355 269,-357C279,-359 289.333,-360 300,-360L320,-360L320,-800L300,-800C283.333,-800 269.167,-794.167 257.5,-782.5C245.833,-770.833 240,-756.667 240,-740L240,-347ZM400,-360L720,-360L720,-800L400,-800L400,-360ZM240,-347L240,-800L240,-347ZM300,-160L673,-160C669,-169.333 665.833,-178.833 663.5,-188.5C661.167,-198.167 660,-208.667 660,-220C660,-230.667 661,-241 663,-251C665,-261 668.333,-270.667 673,-280L300,-280C282.667,-280 268.333,-274.167 257,-262.5C245.667,-250.833 240,-236.667 240,-220C240,-202.667 245.667,-188.333 257,-177C268.333,-165.667 282.667,-160 300,-160Z"/>
        </g>
    </g>
    <g id="checklist-add" transform="matrix(0.025,0,0,0.025,0,24)">
        <path d="M360,-680L360,-760L840,-760L840,-680L360,-680ZM200,-160C178,-160 159.167,-167.833 143.5,-183.5C127.833,-199.167 120,-218 120,-240C120,-262 127.833,-280.833 143.5,-296.5C159.167,-312.167 178,-320 200,-320C222,-320 240.833,-312.167 256.5,-296.5C272.167,-280.833 280,-262 280,-240C280,-218 272.167,-199.167 256.5,-183.5C240.833,-167.833 222,-160 200,-160ZM200,-400C178,-400 159.167,-407.833 143.5,-423.5C127.833,-439.167 120,-458 120,-480C120,-502 127.833,-520.833 143.5,-536.5C159.167,-552.167 178,-560 200,-560C222,-560 240.833,-552.167 256.5,-536.5C272.167,-520.833 280,-502 280,-480C280,-458 272.167,-439.167 256.5,-423.5C240.833,-407.833 222,-400 200,-400ZM143.5,-663.5C127.833,-679.167 120,-698 120,-720C120,-742 127.833,-760.833 143.5,-776.5C159.167,-792.167 178,-800 200,-800C222,-800 240.833,-792.167 256.5,-776.5C272.167,-760.833 280,-742 280,-720C280,-698 272.167,-679.167 256.5,-663.5C240.833,-647.833 222,-640 200,-640C178,-640 159.167,-647.833 143.5,-663.5ZM360,-200L360,-280L443,-280C441,-266.667 440,-253.333 440,-240C440,-226.667 441,-213.333 443,-200L360,-200ZM360,-440L360,-520L720,-520C682,-520 646.333,-512.833 613,-498.5C579.667,-484.167 550.333,-464.667 525,-440L360,-440ZM680,-80L680,-200L560,-200L560,-280L680,-280L680,-400L760,-400L760,-280L880,-280L880,-200L760,-200L760,-80L680,-80Z"/>
    </g>
    <g transform="matrix(0.025,0,0,0.025,0,24)">
        <g id="checklist">
            <path d="M360,-200L360,-280L840,-280L840,-200L360,-200ZM360,-440L360,-520L840,-520L840,-440L360,-440ZM360,-680L360,-760L840,-760L840,-680L360,-680ZM200,-160C178,-160 159.167,-167.833 143.5,-183.5C127.833,-199.167 120,-218 120,-240C120,-262 127.833,-280.833 143.5,-296.5C159.167,-312.167 178,-320 200,-320C222,-320 240.833,-312.167 256.5,-296.5C272.167,-280.833 280,-262 280,-240C280,-218 272.167,-199.167 256.5,-183.5C240.833,-167.833 222,-160 200,-160ZM200,-400C178,-400 159.167,-407.833 143.5,-423.5C127.833,-439.167 120,-458 120,-480C120,-502 127.833,-520.833 143.5,-536.5C159.167,-552.167 178,-560 200,-560C222,-560 240.833,-552.167 256.5,-536.5C272.167,-520.833 280,-502 280,-480C280,-458 272.167,-439.167 256.5,-423.5C240.833,-407.833 222,-400 200,-400ZM143.5,-663.5C127.833,-679.167 120,-698 120,-720C120,-742 127.833,-760.833 143.5,-776.5C159.167,-792.167 178,-800 200,-800C222,-800 240.833,-792.167 256.5,-776.5C272.167,-760.833 280,-742 280,-720C280,-698 272.167,-679.167 256.5,-663.5C240.833,-647.833 222,-640 200,-640C178,-640 159.167,-647.833 143.5,-663.5Z" style="fill-rule:nonzero;"/>
        </g>
    </g>
    <g id="rate" transform="matrix(0.025,0,0,0.025,0,24)">
        <path d="M480,-40C405.333,-40 336.667,-57 274,-91C211.333,-125 160,-170.333 120,-227L120,-120L40,-120L40,-360L280,-360L280,-280L181,-280C213,-232 255.167,-193.333 307.5,-164C359.833,-134.667 417.333,-120 480,-120C530,-120 576.833,-129.5 620.5,-148.5C664.167,-167.5 702.167,-193.167 734.5,-225.5C766.833,-257.833 792.5,-295.833 811.5,-339.5C830.5,-383.167 840,-430 840,-480L920,-480C920,-419.333 908.5,-362.333 885.5,-309C862.5,-255.667 831,-209 791,-169C751,-129 704.333,-97.5 651,-74.5C597.667,-51.5 540.667,-40 480,-40ZM444,-200L444,-252C412.667,-259.333 387.167,-272.833 367.5,-292.5C347.833,-312.167 333.333,-338 324,-370L390,-396C398,-368.667 410.5,-348.167 427.5,-334.5C444.5,-320.833 464,-314 486,-314C508,-314 526.833,-319.167 542.5,-329.5C558.167,-339.833 566,-356 566,-378C566,-397.333 557.833,-413 541.5,-425C525.167,-437 496,-450.667 454,-466C414.667,-480 385.833,-496.667 367.5,-516C349.167,-535.333 340,-560.667 340,-592C340,-619.333 349.5,-644.167 368.5,-666.5C387.5,-688.833 413.333,-703.333 446,-710L446,-760L516,-760L516,-710C540,-708 561.833,-698.333 581.5,-681C601.167,-663.667 614.667,-643.333 622,-620L558,-594C552.667,-609.333 544,-622.167 532,-632.5C520,-642.833 503.333,-648 482,-648C458.667,-648 440.833,-643 428.5,-633C416.167,-623 410,-609.333 410,-592C410,-574.667 417.667,-561 433,-551C448.333,-541 476,-529.333 516,-516C564,-498.667 596,-478.333 612,-455C628,-431.667 636,-406 636,-378C636,-358.667 632.667,-341.667 626,-327C619.333,-312.333 610.5,-299.833 599.5,-289.5C588.5,-279.167 575.667,-270.833 561,-264.5C546.333,-258.167 530.667,-253.333 514,-250L514,-200L444,-200ZM40,-480C40,-540.667 51.5,-597.667 74.5,-651C97.5,-704.333 129,-751 169,-791C209,-831 255.667,-862.5 309,-885.5C362.333,-908.5 419.333,-920 480,-920C554.667,-920 623.333,-903 686,-869C748.667,-835 800,-789.667 840,-733L840,-840L920,-840L920,-600L680,-600L680,-680L779,-680C747,-728 704.833,-766.667 652.5,-796C600.167,-825.333 542.667,-840 480,-840C430,-840 383.167,-830.5 339.5,-811.5C295.833,-792.5 257.833,-766.833 225.5,-734.5C193.167,-702.167 167.5,-664.167 148.5,-620.5C129.5,-576.833 120,-530 120,-480L40,-480Z"/>
    </g>
    <g id="clipboard" transform="matrix(0.025,0,0,0.025,0,25)">
        <path d="M200,-120C178,-120 159.167,-127.833 143.5,-143.5C127.833,-159.167 120,-178 120,-200L120,-760C120,-782 127.833,-800.833 143.5,-816.5C159.167,-832.167 178,-840 200,-840L367,-840C374.333,-863.333 388.667,-882.5 410,-897.5C431.333,-912.5 454.667,-920 480,-920C506.667,-920 530.5,-912.5 551.5,-897.5C572.5,-882.5 586.667,-863.333 594,-840L760,-840C782,-840 800.833,-832.167 816.5,-816.5C832.167,-800.833 840,-782 840,-760L840,-200C840,-178 832.167,-159.167 816.5,-143.5C800.833,-127.833 782,-120 760,-120L200,-120ZM200,-200L760,-200L760,-760L680,-760L680,-640L280,-640L280,-760L200,-760L200,-200ZM508.5,-771.5C516.167,-779.167 520,-788.667 520,-800C520,-811.333 516.167,-820.833 508.5,-828.5C500.833,-836.167 491.333,-840 480,-840C468.667,-840 459.167,-836.167 451.5,-828.5C443.833,-820.833 440,-811.333 440,-800C440,-788.667 443.833,-779.167 451.5,-771.5C459.167,-763.833 468.667,-760 480,-760C491.333,-760 500.833,-763.833 508.5,-771.5Z"/>
        <g transform="matrix(1,0,0,1,-280,20)">
            <path d="M720,-280L720,-400L600,-400L600,-480L720,-480L720,-600L800,-600L800,-480L920,-480L920,-400L800,-400L800,-280L720,-280Z"/>
        </g>
    </g>
    <g id="edit">
        <path d="M3,21L3,16.75L16.2,3.575C16.4,3.392 16.621,3.25 16.863,3.15C17.104,3.05 17.358,3 17.625,3C17.892,3 18.15,3.05 18.4,3.15C18.65,3.25 18.867,3.4 19.05,3.6L20.425,5C20.625,5.183 20.771,5.4 20.863,5.65C20.954,5.9 21,6.15 21,6.4C21,6.667 20.954,6.921 20.863,7.162C20.771,7.404 20.625,7.625 20.425,7.825L7.25,21L3,21ZM14.775,7.8L5,17.575L5,19L6.425,19L16.2,9.225L15.475,8.525L14.775,7.8Z"/>
    </g>
    <g transform="matrix(0.025,0,0,0.025,1.72085e-15,24)">
        <g id="delete">
            <path d="M376,-300L480,-404L584,-300L640,-356L536,-460L640,-564L584,-620L480,-516L376,-620L320,-564L424,-460L320,-356L376,-300ZM280,-120C258,-120 239.167,-127.833 223.5,-143.5C207.833,-159.167 200,-178 200,-200L200,-720L160,-720L160,-800L360,-800L360,-840L600,-840L600,-800L800,-800L800,-720L760,-720L760,-200C760,-178 752.167,-159.167 736.5,-143.5C720.833,-127.833 702,-120 680,-120L280,-120ZM680,-720L280,-720L280,-200L680,-200L680,-720ZM280,-720L280,-200L280,-720Z"/>
        </g>
    </g>
    <g transform="matrix(0.025,0,0,0.025,-5.55112e-17,24)">
        <g id="search">
            <path d="M784,-120L532,-372C512,-356 489,-343.333 463,-334C437,-324.667 409.333,-320 380,-320C307.333,-320 245.833,-345.167 195.5,-395.5C145.167,-445.833 120,-507.333 120,-580C120,-652.667 145.167,-714.167 195.5,-764.5C245.833,-814.833 307.333,-840 380,-840C452.667,-840 514.167,-814.833 564.5,-764.5C614.833,-714.167 640,-652.667 640,-580C640,-550.667 635.333,-523 626,-497C616.667,-471 604,-448 588,-428L840,-176L784,-120ZM380,-400C430,-400 472.5,-417.5 507.5,-452.5C542.5,-487.5 560,-530 560,-580C560,-630 542.5,-672.5 507.5,-707.5C472.5,-742.5 430,-760 380,-760C330,-760 287.5,-742.5 252.5,-707.5C217.5,-672.5 200,-630 200,-580C200,-530 217.5,-487.5 252.5,-452.5C287.5,-417.5 330,-400 380,-400Z" style="fill-rule:nonzero;"/>
        </g>
    </g>
    <g transform="matrix(0.025,0,0,0.025,-5.55112e-17,24)">
        <g id="checkbox">
            <path d="M424,-312L706,-594L650,-650L424,-424L310,-538L254,-482L424,-312ZM200,-120C178,-120 159.167,-127.833 143.5,-143.5C127.833,-159.167 120,-178 120,-200L120,-760C120,-782 127.833,-800.833 143.5,-816.5C159.167,-832.167 178,-840 200,-840L760,-840C782,-840 800.833,-832.167 816.5,-816.5C832.167,-800.833 840,-782 840,-760L840,-200C840,-178 832.167,-159.167 816.5,-143.5C800.833,-127.833 782,-120 760,-120L200,-120ZM200,-200L760,-200L760,-760L200,-760L200,-200ZM200,-760L200,-200L200,-760Z"/>
        </g>
    </g>
    <g id="checkbox-many">
        <g transform="matrix(0.025,0,0,0.025,0,24)">
            <path d="M508,-200L732,-200C727.333,-182.667 719.333,-168.667 708,-158C696.667,-147.333 682,-140.667 664,-138L228,-85C206,-81.667 186.167,-86.833 168.5,-100.5C150.833,-114.167 140.667,-132 138,-154L85,-591C82.333,-613 87.667,-632.667 101,-650C114.333,-667.333 132,-677.333 154,-680L200,-686L200,-606L164,-601L218,-164L508,-200Z"/>
        </g>
        <g transform="matrix(0.025,0,0,0.025,0,24)">
            <path d="M360,-280C338,-280 319.167,-287.833 303.5,-303.5C287.833,-319.167 280,-338 280,-360L280,-800C280,-822 287.833,-840.833 303.5,-856.5C319.167,-872.167 338,-880 360,-880L800,-880C822,-880 840.833,-872.167 856.5,-856.5C872.167,-840.833 880,-822 880,-800L880,-360C880,-338 872.167,-319.167 856.5,-303.5C840.833,-287.833 822,-280 800,-280L360,-280ZM360,-360L800,-360L800,-800L360,-800L360,-360Z"/>
        </g>
        <g transform="matrix(0.025,0,0,0.025,0,24)">
            <path d="M538.5,-438.5L396.5,-580.5L452.5,-636.5L537.5,-551.5L707.5,-721.5L763.5,-664.5L538.5,-438.5Z"/>
        </g>
    </g>
    <g id="check" transform="matrix(0.025,0,0,0.025,-1.77636e-15,24.0125)">
        <path d="M382,-240L154,-468L211,-525L382,-354L749,-721L806,-664L382,-240Z"/>
    </g>
    <g transform="matrix(0.025,0,0,0.025,-6.88338e-15,23.5)">
        <g id="collapse">
            <path d="M480,-360L280,-560L680,-560L480,-360Z"/>
        </g>
    </g>
    <g id="refresh" transform="matrix(0.025,0,0,0.025,-0.318302,23.6817)">
        <path d="M480,-160C390.667,-160 315,-191 253,-253C191,-315 160,-390.667 160,-480C160,-569.333 191,-645 253,-707C315,-769 390.667,-800 480,-800C526,-800 570,-790.5 612,-771.5C654,-752.5 690,-725.333 720,-690L720,-800L800,-800L800,-520L520,-520L520,-600L688,-600C666.667,-637.333 637.5,-666.667 600.5,-688C563.5,-709.333 523.333,-720 480,-720C413.333,-720 356.667,-696.667 310,-650C263.333,-603.333 240,-546.667 240,-480C240,-413.333 263.333,-356.667 310,-310C356.667,-263.333 413.333,-240 480,-240C531.333,-240 577.667,-254.667 619,-284C660.333,-313.333 689.333,-352 706,-400L790,-400C771.333,-329.333 733.333,-271.667 676,-227C618.667,-182.333 553.333,-160 480,-160Z"/>
    </g>
    <g id="sync" transform="matrix(0.025,0,0,0.025,0,24)">
        <path d="M280,-120L80,-320L280,-520L337,-464L233,-360L840,-360L840,-280L233,-280L337,-176L280,-120ZM680,-440L623,-496L727,-600L120,-600L120,-680L727,-680L623,-784L680,-840L880,-640L680,-440Z"/>
    </g>
    <g id="arrow-down" transform="matrix(0.025,0,0,0.025,0,24)">
        <path d="M440,-800L520,-800L520,-313L744,-537L800,-480L480,-160L160,-480L216,-537L440,-313L440,-800Z"/>
    </g>
    <g id="arrow-up" transform="matrix(-0.025,-3.06162e-18,3.06162e-18,-0.025,24,1.42109e-14)">
        <path d="M440,-800L520,-800L520,-313L744,-537L800,-480L480,-160L160,-480L216,-537L440,-313L440,-800Z"/>
    </g>
    <g transform="matrix(1.53081e-18,-0.025,0.025,1.53081e-18,24,24)">
        <g id="arrow-forward">
            <path d="M440,-800L520,-800L520,-313L744,-537L800,-480L480,-160L160,-480L216,-537L440,-313L440,-800Z"/>
        </g>
    </g>
    <g transform="matrix(0.025,0,0,0.025,-5.55112e-17,24)">
        <g id="minus">
            <rect x="120" y="-520" width="720" height="80"/>
        </g>
    </g>
    <g id="add-many">
        <g transform="matrix(0.025,0,0,0.025,0,24)">
            <path d="M508,-200L732,-200C727.333,-182.667 719.333,-168.667 708,-158C696.667,-147.333 682,-140.667 664,-138L228,-85C206,-81.667 186.167,-86.833 168.5,-100.5C150.833,-114.167 140.667,-132 138,-154L85,-591C82.333,-613 87.667,-632.667 101,-650C114.333,-667.333 132,-677.333 154,-680L200,-686L200,-606L164,-601L218,-164L508,-200Z"/>
        </g>
        <g transform="matrix(0.025,0,0,0.025,0,24)">
            <path d="M360,-280C338,-280 319.167,-287.833 303.5,-303.5C287.833,-319.167 280,-338 280,-360L280,-800C280,-822 287.833,-840.833 303.5,-856.5C319.167,-872.167 338,-880 360,-880L800,-880C822,-880 840.833,-872.167 856.5,-856.5C872.167,-840.833 880,-822 880,-800L880,-360C880,-338 872.167,-319.167 856.5,-303.5C840.833,-287.833 822,-280 800,-280L360,-280ZM360,-360L800,-360L800,-800L360,-800L360,-360Z"/>
        </g>
        <g transform="matrix(0.025,0,0,0.025,1.77636e-15,19)">
            <path d="M540,-220L620,-220L620,-340L740,-340L740,-420L620,-420L620,-540L540,-540L540,-420L420,-420L420,-340L540,-340L540,-220Z"/>
        </g>
    </g>
    <g id="add-below">
        <g transform="matrix(0.025,0,0,0.025,0,24)">
            <path d="M360,-120L200,-120C178,-120 159.167,-127.833 143.5,-143.5C127.833,-159.167 120,-178 120,-200L120,-760C120,-782 127.833,-800.833 143.5,-816.5C159.167,-832.167 178,-840 200,-840L760,-840C782,-840 800.833,-832.167 816.5,-816.5C832.167,-800.833 840,-782 840,-760L840,-200C840,-178 832.167,-159.167 816.5,-143.5C800.833,-127.833 782,-120 760,-120L600,-120L600,-200L760,-200L760,-760L200,-760L200,-200L360,-200L360,-120Z"/>
        </g>
        <g transform="matrix(0.025,0,0,0.025,-2.5,24.5)">
            <path d="M540,-220L620,-220L620,-340L740,-340L740,-420L620,-420L620,-540L540,-540L540,-420L420,-420L420,-340L540,-340L540,-220Z"/>
        </g>
    </g>
    <g id="add">
        <g transform="matrix(0.025,0,0,0.025,0,24)">
            <path d="M200,-120C178,-120 159.167,-127.833 143.5,-143.5C127.833,-159.167 120,-178 120,-200L120,-760C120,-782 127.833,-800.833 143.5,-816.5C159.167,-832.167 178,-840 200,-840L760,-840C782,-840 800.833,-832.167 816.5,-816.5C832.167,-800.833 840,-782 840,-760L840,-200C840,-178 832.167,-159.167 816.5,-143.5C800.833,-127.833 782,-120 760,-120L200,-120ZM200,-200L760,-200L760,-760L200,-760L200,-200Z"/>
        </g>
        <g transform="matrix(0.025,0,0,0.025,0,24)">
            <path d="M440,-280L440,-440L280,-440L280,-520L440,-520L440,-680L520,-680L520,-520L680,-520L680,-440L520,-440L520,-280L440,-280Z"/>
        </g>
    </g>
    <g id="menu" transform="matrix(0.025,0,0,0.025,0,24)">
        <path d="M480,-160C458,-160 439.167,-167.833 423.5,-183.5C407.833,-199.167 400,-218 400,-240C400,-262 407.833,-280.833 423.5,-296.5C439.167,-312.167 458,-320 480,-320C502,-320 520.833,-312.167 536.5,-296.5C552.167,-280.833 560,-262 560,-240C560,-218 552.167,-199.167 536.5,-183.5C520.833,-167.833 502,-160 480,-160ZM480,-400C458,-400 439.167,-407.833 423.5,-423.5C407.833,-439.167 400,-458 400,-480C400,-502 407.833,-520.833 423.5,-536.5C439.167,-552.167 458,-560 480,-560C502,-560 520.833,-552.167 536.5,-536.5C552.167,-520.833 560,-502 560,-480C560,-458 552.167,-439.167 536.5,-423.5C520.833,-407.833 502,-400 480,-400ZM480,-640C458,-640 439.167,-647.833 423.5,-663.5C407.833,-679.167 400,-698 400,-720C400,-742 407.833,-760.833 423.5,-776.5C439.167,-792.167 458,-800 480,-800C502,-800 520.833,-792.167 536.5,-776.5C552.167,-760.833 560,-742 560,-720C560,-698 552.167,-679.167 536.5,-663.5C520.833,-647.833 502,-640 480,-640Z"/>
    </g>
    <g id="close">
        <path id="close1" serif:id="close" d="M6.4,19L5,17.6L10.6,12L5,6.4L6.4,5L12,10.6L17.6,5L19,6.4L13.4,12L19,17.6L17.6,19L12,13.4L6.4,19Z"/>
    </g>
</svg>
